<svg width="19" height="19" viewBox="0 0 19 19" fill="none" xmlns="http://www.w3.org/2000/svg">
<mask id="mask0_7142_832" style="mask-type:alpha" maskUnits="userSpaceOnUse" x="0" y="0" width="19" height="19">
<rect width="19" height="19" fill="#D9D9D9"/>
</mask>
<g mask="url(#mask0_7142_832)">
<path d="M5.54199 16.625C5.10658 16.625 4.73383 16.47 4.42376 16.1599C4.11369 15.8498 3.95866 15.4771 3.95866 15.0417V4.75C3.73435 4.75 3.54633 4.67413 3.3946 4.5224C3.24286 4.37066 3.16699 4.18264 3.16699 3.95833C3.16699 3.73403 3.24286 3.54601 3.3946 3.39427C3.54633 3.24253 3.73435 3.16667 3.95866 3.16667H7.12533C7.12533 2.94236 7.20119 2.75434 7.35293 2.6026C7.50467 2.45087 7.69269 2.375 7.91699 2.375H11.0837C11.308 2.375 11.496 2.45087 11.6477 2.6026C11.7995 2.75434 11.8753 2.94236 11.8753 3.16667H15.042C15.2663 3.16667 15.4543 3.24253 15.6061 3.39427C15.7578 3.54601 15.8337 3.73403 15.8337 3.95833C15.8337 4.18264 15.7578 4.37066 15.6061 4.5224C15.4543 4.67413 15.2663 4.75 15.042 4.75V15.0417C15.042 15.4771 14.887 15.8498 14.5769 16.1599C14.2668 16.47 13.8941 16.625 13.4587 16.625H5.54199ZM13.4587 4.75H5.54199V15.0417H13.4587V4.75ZM7.91699 13.4583C8.1413 13.4583 8.32932 13.3825 8.48105 13.2307C8.63279 13.079 8.70866 12.891 8.70866 12.6667V7.125C8.70866 6.90069 8.63279 6.71267 8.48105 6.56094C8.32932 6.4092 8.1413 6.33333 7.91699 6.33333C7.69269 6.33333 7.50467 6.4092 7.35293 6.56094C7.20119 6.71267 7.12533 6.90069 7.12533 7.125V12.6667C7.12533 12.891 7.20119 13.079 7.35293 13.2307C7.50467 13.3825 7.69269 13.4583 7.91699 13.4583ZM11.0837 13.4583C11.308 13.4583 11.496 13.3825 11.6477 13.2307C11.7995 13.079 11.8753 12.891 11.8753 12.6667V7.125C11.8753 6.90069 11.7995 6.71267 11.6477 6.56094C11.496 6.4092 11.308 6.33333 11.0837 6.33333C10.8594 6.33333 10.6713 6.4092 10.5196 6.56094C10.3679 6.71267 10.292 6.90069 10.292 7.125V12.6667C10.292 12.891 10.3679 13.079 10.5196 13.2307C10.6713 13.3825 10.8594 13.4583 11.0837 13.4583Z" fill="#10310B"/>
</g>
</svg>
