<svg width="23" height="20" viewBox="0 0 23 20" fill="none" xmlns="http://www.w3.org/2000/svg">
<path d="M11.5 20C11.2317 20 10.9585 19.9529 10.6806 19.8586C10.4027 19.7643 10.1583 19.6134 9.9475 19.4059L7.96375 17.6238C5.93208 15.7944 4.09688 13.9793 2.45813 12.1782C0.819375 10.3772 0 8.39227 0 6.22348C0 4.45073 0.60375 2.9703 1.81125 1.78218C3.01875 0.594059 4.52333 0 6.325 0C7.34083 0 8.29917 0.212164 9.2 0.636492C10.1008 1.06082 10.8675 1.64074 11.5 2.37624C12.1325 1.64074 12.8992 1.06082 13.8 0.636492C14.7008 0.212164 15.6592 0 16.675 0C18.4767 0 19.9813 0.594059 21.1888 1.78218C22.3963 2.9703 23 4.45073 23 6.22348C23 8.39227 22.1854 10.3819 20.5562 12.1924C18.9271 14.0028 17.0775 15.8227 15.0075 17.6521L13.0525 19.4059C12.8417 19.6134 12.5973 19.7643 12.3194 19.8586C12.0415 19.9529 11.7683 20 11.5 20ZM10.4075 4.63932C9.85167 3.8661 9.2575 3.27676 8.625 2.87129C7.9925 2.46582 7.22583 2.26308 6.325 2.26308C5.175 2.26308 4.21667 2.64026 3.45 3.39463C2.68333 4.14899 2.3 5.09194 2.3 6.22348C2.3 7.20415 2.65458 8.24611 3.36375 9.34936C4.07292 10.4526 4.92104 11.5229 5.90813 12.5601C6.89521 13.5974 7.91104 14.5686 8.95562 15.4738C10.0002 16.3791 10.8483 17.124 11.5 17.7086C12.1517 17.124 12.9998 16.3791 14.0444 15.4738C15.089 14.5686 16.1048 13.5974 17.0919 12.5601C18.079 11.5229 18.9271 10.4526 19.6362 9.34936C20.3454 8.24611 20.7 7.20415 20.7 6.22348C20.7 5.09194 20.3167 4.14899 19.55 3.39463C18.7833 2.64026 17.825 2.26308 16.675 2.26308C15.7742 2.26308 15.0075 2.46582 14.375 2.87129C13.7425 3.27676 13.1483 3.8661 12.5925 4.63932C12.4583 4.82791 12.2954 4.96935 12.1038 5.06365C11.9121 5.15794 11.7108 5.20509 11.5 5.20509C11.2892 5.20509 11.0879 5.15794 10.8962 5.06365C10.7046 4.96935 10.5417 4.82791 10.4075 4.63932Z" fill="#008000"/>
</svg>
